<svg xmlns="http://www.w3.org/2000/svg" width="71" height="20" viewBox="0 0 71 20" fill="none">
<path d="M52.9424 17.5903C54.6183 17.5903 56.2943 16.1608 59.9186 10.4925L64.4045 10.3962C64.4448 10.3944 64.4853 10.3936 64.5261 10.3936L64.4045 10.3962C60.2572 10.5748 58.7039 19.8578 53.041 19.8578L52.9424 17.5903Z" fill="#01D4CD"/>
<path d="M52.748 8.02588C55.1216 8.02588 57.1674 9.42441 58.1094 11.4419C57.5124 12.2501 56.9001 13.0395 56.2969 13.7505C56.149 11.926 54.6206 10.4907 52.7549 10.4907C50.7913 10.4908 49.1992 12.0805 49.1992 14.0405C49.1994 16.0004 50.7914 17.5893 52.7549 17.5894C52.8178 17.5894 52.8803 17.5867 52.9424 17.5835L52.9443 17.5864C54.3829 17.5864 55.9279 16.5313 58.5195 12.6479C58.6124 13.0642 58.6631 13.4967 58.6631 13.9409C58.6631 17.2078 56.0149 19.856 52.748 19.856C49.4813 19.8559 46.833 17.2077 46.833 13.9409C46.8331 10.6741 49.4813 8.02591 52.748 8.02588Z" fill="#01D4CD"/>
<path d="M56.5949 9.79521C56.6092 9.81375 57.5829 11.0748 58.1136 11.4395C57.1016 12.9351 56.0843 14.2025 55.17 15.2761C54.5161 16.0439 53.3379 16.0552 52.6515 15.3165L52.2034 14.8329L56.5949 9.79521Z" fill="#01D4CD"/>
<path d="M68.3252 13.9368H70.775V19.8519C69.422 19.8519 68.3252 18.7551 68.3252 17.4021V13.9368Z" fill="#01D4CD"/>
<path d="M64.8145 7.92822C68.1044 7.92823 70.7715 10.5953 70.7715 13.8853C70.7715 17.1753 68.1044 19.8423 64.8145 19.8423C62.4842 19.8423 60.4672 18.5039 59.4883 16.5542C60.1086 15.7072 60.6812 14.839 61.2256 14.0493C61.2821 15.96 62.8491 17.4917 64.7734 17.4917C66.7332 17.4915 68.3221 15.9027 68.3223 13.9429C68.3223 11.9829 66.7333 10.3933 64.7734 10.3931C64.699 10.3931 64.6251 10.3954 64.5518 10.3999C64.5369 10.3965 64.5283 10.395 64.5283 10.395C62.2977 10.3954 60.8149 13.0143 59.0801 15.4976C58.9362 14.9846 58.8574 14.4442 58.8574 13.8853C58.8574 10.5953 61.5245 7.92822 64.8145 7.92822Z" fill="#01D4CD"/>
<path d="M18.9551 7.93433C20.6169 7.93434 21.9313 8.46428 22.8975 9.52319C23.8555 10.5743 24.3349 12.031 24.335 13.8933L24.3281 14.2185C24.3249 14.3793 24.194 14.5083 24.0332 14.5085H16.2305C16.2307 17.7915 20.0709 18.7243 21.6494 16.4343C21.7333 16.3126 21.8895 16.2574 22.0264 16.3132L23.9912 17.115C24.1631 17.1851 24.229 17.3963 24.1201 17.5466C21.54 21.1027 16.9641 20.3012 15.0361 18.2419C14.0159 17.1521 13.5059 15.706 13.5059 13.905C13.5059 12.1197 14.0009 10.6743 14.9902 9.56909C15.9873 8.47939 17.3088 7.93433 18.9551 7.93433ZM38.8242 0.0466309C38.9874 0.0467873 39.12 0.17937 39.1201 0.342529V11.7478L42.8926 7.99878C42.948 7.94393 43.0226 7.91285 43.1006 7.91284H46.167C46.3442 7.91284 46.4318 8.12846 46.3047 8.25171L41.5059 12.8923L46.918 19.6404C47.0215 19.7694 46.9291 19.9617 46.7637 19.9617H44.5859C43.9799 19.9616 43.4079 19.682 43.0342 19.2048L39.5576 14.7664L39.1201 15.2048L39.1387 19.6199C39.1394 19.7816 39.0103 19.9138 38.8486 19.9167L36.6318 19.9558C36.4665 19.9585 36.3309 19.8252 36.3311 19.6599L36.376 2.01343C36.3789 0.926553 37.2607 0.0466309 38.3477 0.0466309H38.8242ZM9.75684 -0.000244141C10.8458 -0.000244141 11.7285 0.88252 11.7285 1.97144L11.7266 19.9548H10.6289C9.7565 19.9548 9.04953 19.2462 9.05176 18.3738C8.00126 19.4006 6.8123 19.9138 5.48535 19.9138C3.90572 19.9138 2.59433 19.3375 1.55176 18.1843C0.517169 17.0075 4.08141e-05 15.5383 0 13.7771C0 12.0554 0.51725 10.6177 1.55176 9.4646C2.57846 8.30363 3.86999 7.72253 5.42578 7.72241C6.77642 7.72241 7.98546 8.27579 9.05176 9.38159V0.295654C9.05176 0.132312 9.18432 -0.000244141 9.34766 -0.000244141H9.75684ZM30.2158 7.98608C31.734 7.98617 32.8866 8.64269 33.6738 9.95483C33.7603 10.099 33.6987 10.2839 33.5469 10.3562L31.6621 11.2517C31.5206 11.3189 31.353 11.2633 31.2666 11.1326C30.9128 10.5967 30.4889 10.329 29.9951 10.3289C29.7268 10.3289 29.4971 10.4097 29.3066 10.572C29.1163 10.7265 29.0206 10.9274 29.0205 11.1746C29.0205 11.6074 29.5836 12.0366 30.709 12.4617C32.2586 13.0568 33.3021 13.6057 33.8389 14.1082C34.3754 14.6105 34.6436 15.2873 34.6436 16.1375C34.6435 17.2271 34.1932 18.1396 33.293 18.8738C32.4188 19.5692 31.3626 19.9167 30.125 19.9167C28.1136 19.9167 26.6588 19.086 25.7607 17.4246C25.6801 17.2754 25.7506 17.091 25.9072 17.0261L27.8828 16.2087C28.0151 16.154 28.1677 16.2019 28.2471 16.321C28.5276 16.7435 28.7469 17.0191 28.9043 17.1462C29.2592 17.4398 29.6835 17.5867 30.1768 17.5867C31.1635 17.5866 31.6572 17.1844 31.6572 16.3806C31.6572 15.9169 31.2763 15.4837 30.5146 15.0818C30.2203 14.9504 29.9252 14.8226 29.6309 14.699C29.3367 14.5754 29.0381 14.4484 28.7354 14.3171C27.887 13.9462 27.2896 13.5748 26.9434 13.2039C26.5019 12.7324 26.2812 12.1256 26.2812 11.3835C26.2812 10.4019 26.658 9.59051 27.4111 8.94897C28.1816 8.30752 29.1165 7.98608 30.2158 7.98608ZM5.76758 10.2527C3.88922 10.2527 2.36631 11.8857 2.36621 13.9001C2.36621 15.9147 3.88916 17.5476 5.76758 17.5476C7.64583 17.5474 9.16797 15.9146 9.16797 13.9001C9.16787 11.8858 7.64577 10.2529 5.76758 10.2527ZM19.0127 10.2878C18.6959 10.2879 18.3983 10.3388 18.1201 10.4392C17.8421 10.5319 17.5872 10.6708 17.3555 10.8562C17.1313 11.034 16.9377 11.2505 16.7754 11.5056C16.6132 11.7606 16.4893 12.0503 16.4043 12.3748H21.6445C21.2812 10.9836 20.4039 10.2878 19.0127 10.2878Z" fill="#6844DE"/>
</svg>