<svg xmlns="http://www.w3.org/2000/svg" width="28" height="28" viewBox="0 0 28 28" fill="none">
<rect width="28" height="28" rx="4" fill="#6844DE"/>
<path d="M9.59277 16.7458C10.8527 16.7458 12.1127 15.6845 14.8374 11.4761L18.2099 11.4045C18.2402 11.4032 18.2707 11.4026 18.3014 11.4026L18.2099 11.4045C15.092 11.5372 13.9242 18.4292 9.66689 18.4292L9.59277 16.7458Z" fill="white"/>
<path d="M9.44727 9.64331C11.2311 9.64344 12.7683 10.6813 13.4766 12.1785C13.0272 12.7792 12.5673 13.3669 12.1133 13.8953C12.0023 12.5406 10.8549 11.4753 9.45215 11.4753C7.97595 11.4754 6.77935 12.6549 6.7793 14.1101C6.77932 15.5653 7.97593 16.7449 9.45215 16.7449C9.49939 16.7449 9.54613 16.7394 9.59277 16.7371L9.59473 16.741C10.6762 16.741 11.8378 15.9581 13.7861 13.075C13.8559 13.384 13.8936 13.7051 13.8936 14.0349C13.8935 16.4602 11.9031 18.4263 9.44727 18.4265C6.9913 18.4265 5.00002 16.4603 5 14.0349C5.00001 11.6095 6.99129 9.64331 9.44727 9.64331Z" fill="white"/>
<path d="M12.3381 10.9567C12.3381 10.9567 13.0788 11.9054 13.4807 12.1782C12.7213 13.2865 11.9577 14.2258 11.2713 15.022C10.7775 15.5946 9.88994 15.6046 9.37393 15.0559L9.0373 14.6976L12.3381 10.9567Z" fill="white"/>
<path d="M21.1582 14.0347H23V18.4263C21.9828 18.4263 21.1582 17.6017 21.1582 16.5846V14.0347Z" fill="white"/>
<path d="M18.5176 9.5708C20.9905 9.5708 22.9954 11.5516 22.9961 13.9937C22.9961 16.4363 20.991 18.4165 18.5176 18.4165C16.7653 18.4163 15.2484 17.4224 14.5127 15.9741C14.9794 15.3447 15.4127 14.7014 15.8223 14.1147C15.8634 15.5344 17.0399 16.6731 18.4873 16.6733C19.9608 16.6732 21.1553 15.4928 21.1553 14.0376C21.1546 12.583 19.9603 11.403 18.4873 11.4028C18.4335 11.4028 18.3802 11.4075 18.3271 11.4106C18.3115 11.4071 18.3027 11.4048 18.3027 11.4048C16.626 11.4051 15.5111 13.3484 14.207 15.1919C14.0987 14.8108 14.0391 14.4089 14.0391 13.9937C14.0398 11.5518 16.0449 9.57109 18.5176 9.5708Z" fill="white"/>
</svg>